<?xml version="1.0" encoding="UTF-8"?>
<svg id="Capa_2" xmlns="http://www.w3.org/2000/svg" viewBox="0 0 68.23 53.97">
  <g id="Capa_1-2" data-name="Capa_1">
    <polygon points="50.93 36.74 68.16 53.97 53.97 53.97 50.93 50.93 43.93 43.93 34.11 34.11 26.63 41.61 24.29 43.93 17.02 51.2 15.64 52.59 14.26 53.97 .06 53.97 6.99 47.06 8.54 45.49 17.02 37.01 19.53 34.51 22.05 32 27.02 27.02 32.07 21.96 21.96 21.96 0 0 14.18 0 34.11 19.93 44.02 10.02 54.05 0 68.23 0 60.96 7.27 46.27 21.96 36.15 21.96 50.93 36.74"/>
  </g>
</svg>